<svg width="34" height="34" viewBox="0 0 34 34" fill="none" xmlns="http://www.w3.org/2000/svg">
<circle cx="17" cy="17" r="17" fill="#87A8CF"/>
<path fill-rule="evenodd" clip-rule="evenodd" d="M23.8334 9H11.1667C10.9568 9 10.7554 9.10536 10.607 9.29289C10.4585 9.48043 10.3751 9.73478 10.3751 10V24C10.3751 24.2652 10.4585 24.5196 10.607 24.7071C10.7554 24.8946 10.9568 25 11.1667 25H23.8334C24.0434 25 24.2447 24.8946 24.3932 24.7071C24.5417 24.5196 24.6251 24.2652 24.6251 24V10C24.6251 9.73478 24.5417 9.48043 24.3932 9.29289C24.2447 9.10536 24.0434 9 23.8334 9ZM11.1667 7C10.5369 7 9.93277 7.31607 9.48737 7.87868C9.04197 8.44129 8.79175 9.20435 8.79175 10V24C8.79175 24.7956 9.04197 25.5587 9.48737 26.1213C9.93277 26.6839 10.5369 27 11.1667 27H23.8334C24.4633 27 25.0674 26.6839 25.5128 26.1213C25.9582 25.5587 26.2084 24.7956 26.2084 24V10C26.2084 9.20435 25.9582 8.44129 25.5128 7.87868C25.0674 7.31607 24.4633 7 23.8334 7H11.1667ZM12.7501 12H14.3334V14H12.7501V12ZM16.7084 12C16.4985 12 16.2971 12.1054 16.1486 12.2929C16.0002 12.4804 15.9167 12.7348 15.9167 13C15.9167 13.2652 16.0002 13.5196 16.1486 13.7071C16.2971 13.8946 16.4985 14 16.7084 14H21.4584C21.6684 14 21.8697 13.8946 22.0182 13.7071C22.1667 13.5196 22.2501 13.2652 22.2501 13C22.2501 12.7348 22.1667 12.4804 22.0182 12.2929C21.8697 12.1054 21.6684 12 21.4584 12H16.7084ZM14.3334 16H12.7501V18H14.3334V16ZM15.9167 17C15.9167 16.7348 16.0002 16.4804 16.1486 16.2929C16.2971 16.1054 16.4985 16 16.7084 16H21.4584C21.6684 16 21.8697 16.1054 22.0182 16.2929C22.1667 16.4804 22.2501 16.7348 22.2501 17C22.2501 17.2652 22.1667 17.5196 22.0182 17.7071C21.8697 17.8946 21.6684 18 21.4584 18H16.7084C16.4985 18 16.2971 17.8946 16.1486 17.7071C16.0002 17.5196 15.9167 17.2652 15.9167 17ZM14.3334 20H12.7501V22H14.3334V20ZM15.9167 21C15.9167 20.7348 16.0002 20.4804 16.1486 20.2929C16.2971 20.1054 16.4985 20 16.7084 20H21.4584C21.6684 20 21.8697 20.1054 22.0182 20.2929C22.1667 20.4804 22.2501 20.7348 22.2501 21C22.2501 21.2652 22.1667 21.5196 22.0182 21.7071C21.8697 21.8946 21.6684 22 21.4584 22H16.7084C16.4985 22 16.2971 21.8946 16.1486 21.7071C16.0002 21.5196 15.9167 21.2652 15.9167 21Z" fill="white" fill-opacity="0.7"/>
</svg>
