<svg width="35" height="35" viewBox="0 0 35 35" fill="none" xmlns="http://www.w3.org/2000/svg">
<path d="M27.7084 5.83333H24.7917V4.375C24.7917 3.98823 24.6381 3.61729 24.3646 3.3438C24.0911 3.07031 23.7202 2.91667 23.3334 2.91667C22.9466 2.91667 22.5757 3.07031 22.3022 3.3438C22.0287 3.61729 21.8751 3.98823 21.8751 4.375V5.83333H13.1251V4.375C13.1251 3.98823 12.9714 3.61729 12.6979 3.3438C12.4245 3.07031 12.0535 2.91667 11.6667 2.91667C11.28 2.91667 10.909 3.07031 10.6356 3.3438C10.3621 3.61729 10.2084 3.98823 10.2084 4.375V5.83333H7.29175C6.13143 5.83333 5.01863 6.29427 4.19816 7.11474C3.37768 7.93521 2.91675 9.04801 2.91675 10.2083V27.7083C2.91675 28.8687 3.37768 29.9815 4.19816 30.8019C5.01863 31.6224 6.13143 32.0833 7.29175 32.0833H27.7084C28.8687 32.0833 29.9815 31.6224 30.802 30.8019C31.6225 29.9815 32.0834 28.8687 32.0834 27.7083V10.2083C32.0834 9.04801 31.6225 7.93521 30.802 7.11474C29.9815 6.29427 28.8687 5.83333 27.7084 5.83333ZM29.1667 27.7083C29.1667 28.0951 29.0131 28.466 28.7396 28.7395C28.4661 29.013 28.0952 29.1667 27.7084 29.1667H7.29175C6.90497 29.1667 6.53404 29.013 6.26055 28.7395C5.98706 28.466 5.83341 28.0951 5.83341 27.7083V17.5H29.1667V27.7083ZM29.1667 14.5833H5.83341V10.2083C5.83341 9.82156 5.98706 9.45063 6.26055 9.17714C6.53404 8.90365 6.90497 8.75 7.29175 8.75H10.2084V10.2083C10.2084 10.5951 10.3621 10.966 10.6356 11.2395C10.909 11.513 11.28 11.6667 11.6667 11.6667C12.0535 11.6667 12.4245 11.513 12.6979 11.2395C12.9714 10.966 13.1251 10.5951 13.1251 10.2083V8.75H21.8751V10.2083C21.8751 10.5951 22.0287 10.966 22.3022 11.2395C22.5757 11.513 22.9466 11.6667 23.3334 11.6667C23.7202 11.6667 24.0911 11.513 24.3646 11.2395C24.6381 10.966 24.7917 10.5951 24.7917 10.2083V8.75H27.7084C28.0952 8.75 28.4661 8.90365 28.7396 9.17714C29.0131 9.45063 29.1667 9.82156 29.1667 10.2083V14.5833Z" fill="black"/>
</svg>
