<svg width="36" height="36" viewBox="0 0 36 36" fill="none" xmlns="http://www.w3.org/2000/svg">
<g id="majesticons:chat-line">
<path id="Vector" d="M18.0001 31.5C20.9954 31.4996 23.9056 30.503 26.2724 28.6671C28.6392 26.8312 30.3282 24.2602 31.0735 21.3591C31.8188 18.4579 31.5781 15.3913 30.3892 12.6419C29.2004 9.89258 27.1309 7.6167 24.5067 6.17258C21.8824 4.72846 18.8524 4.19812 15.8936 4.66505C12.9349 5.13199 10.2154 6.56967 8.16343 8.75177C6.11144 10.9339 4.84343 13.7365 4.55905 16.7183C4.27466 19.7001 4.99004 22.6919 6.59256 25.2225L4.50006 31.5L10.7776 29.4075C12.9369 30.7782 15.4425 31.5041 18.0001 31.5Z" stroke="white" stroke-width="2.5" stroke-linecap="round" stroke-linejoin="round"/>
</g>
</svg>
