<svg width="34" height="34" viewBox="0 0 34 34" fill="none" xmlns="http://www.w3.org/2000/svg">
<circle cx="17" cy="17" r="17" fill="#87A8CF"/>
<path d="M22.9449 19.277C22.5859 17.9758 21.81 16.8283 20.7361 16.0106C19.6623 15.1928 18.3498 14.75 17 14.75C15.6502 14.75 14.3377 15.1928 13.2638 16.0106C12.1899 16.8283 11.414 17.9758 11.055 19.277L10.1997 22.3778C10.0461 22.9345 10.0232 23.5192 10.1327 24.0863C10.2423 24.6533 10.4813 25.1874 10.8312 25.6469C11.1811 26.1064 11.6324 26.4788 12.1499 26.7352C12.6674 26.9916 13.2371 27.125 13.8146 27.125H20.1853C20.7628 27.125 21.3326 26.9916 21.8501 26.7352C22.3676 26.4788 22.8189 26.1064 23.1688 25.6469C23.5186 25.1874 23.7577 24.6533 23.8672 24.0863C23.9768 23.5192 23.9538 22.9345 23.8003 22.3778L22.9449 19.277ZM21.9754 24.7379C21.7664 25.0146 21.4958 25.2389 21.1851 25.3928C20.8744 25.5468 20.5321 25.6263 20.1853 25.625H13.8146C13.4681 25.625 13.1263 25.545 12.8157 25.3911C12.5052 25.2373 12.2345 25.0138 12.0245 24.7381C11.8146 24.4624 11.6712 24.142 11.6054 23.8017C11.5397 23.4615 11.5535 23.1107 11.6456 22.7766L12.501 19.6759C12.7726 18.6912 13.3598 17.8228 14.1725 17.204C14.9852 16.5851 15.9785 16.25 17 16.25C18.0214 16.25 19.0147 16.5851 19.8274 17.204C20.6401 17.8228 21.2273 18.6912 21.4989 19.6759L22.3543 22.7766C22.4478 23.1106 22.4622 23.4617 22.3965 23.8021C22.3307 24.1426 22.1865 24.463 21.9754 24.7381V24.7379ZM11.8484 15.7958C11.9789 14.9802 11.8058 14.107 11.3609 13.3366C10.916 12.5661 10.2462 11.9797 9.47479 11.6849C8.64867 11.3694 7.80604 11.4196 7.10132 11.8263C5.70037 12.6352 5.3317 14.6287 6.27965 16.2703C6.72445 17.0407 7.39425 17.6273 8.16567 17.922C8.50739 18.0552 8.87062 18.1246 9.23737 18.1269C9.69428 18.1285 10.1435 18.009 10.5391 17.7805C11.2434 17.3738 11.7084 16.6689 11.8484 15.7958ZM10.3672 15.5587C10.3001 15.9772 10.0948 16.3049 9.78904 16.4815C9.48328 16.658 9.09684 16.6719 8.70075 16.5207C8.25014 16.3486 7.85161 15.9933 7.57851 15.5203C7.05351 14.6109 7.17829 13.514 7.85132 13.1254C8.02052 13.0293 8.21213 12.9799 8.40665 12.982C8.58913 12.9839 8.76972 13.0191 8.93953 13.0859C9.39014 13.2581 9.78867 13.6134 10.0618 14.0864C10.3349 14.5594 10.4433 15.0824 10.3672 15.5587ZM12.0109 12.6883C12.5435 13.1141 13.1517 13.3358 13.7667 13.3357C13.9509 13.3357 14.1346 13.3159 14.3146 13.2766C15.8954 12.933 16.8539 11.1465 16.4512 9.29422C16.2623 8.42488 15.803 7.66217 15.158 7.1465C14.4673 6.59431 13.6492 6.3853 12.8542 6.55817C11.2735 6.90177 10.3151 8.68827 10.7177 10.5405C10.9066 11.4099 11.3659 12.1726 12.0109 12.6883ZM13.1728 8.02395C13.2457 8.00824 13.3201 8.00038 13.3946 8.00052C13.6734 8.00052 13.9602 8.1096 14.2214 8.31838C14.5981 8.61955 14.8694 9.07935 14.9854 9.61311C15.2085 10.6394 14.7555 11.646 13.996 11.8111C13.651 11.8861 13.2786 11.7816 12.9476 11.5169C12.5708 11.2157 12.2995 10.7559 12.1835 10.2222C11.9603 9.1956 12.4134 8.18905 13.1728 8.02395ZM26.8986 11.8263C26.1942 11.4196 25.3511 11.3694 24.5251 11.6849C23.7537 11.9796 23.0839 12.5661 22.6391 13.3366C22.1943 14.107 22.0212 14.9803 22.1516 15.7958C22.2914 16.6689 22.7563 17.3738 23.4609 17.7805C23.8566 18.009 24.3057 18.1286 24.7627 18.1269C25.1294 18.1246 25.4926 18.0552 25.8344 17.922C26.6058 17.6273 27.2756 17.0407 27.7204 16.2703C28.6682 14.6287 28.2996 12.6352 26.8986 11.8263ZM26.4214 15.5203C26.1483 15.9933 25.7498 16.3486 25.2992 16.5207C24.9033 16.672 24.5167 16.6581 24.211 16.4815C23.9052 16.3048 23.7 15.9772 23.6329 15.5587C23.5567 15.0824 23.665 14.5596 23.9382 14.0868C24.2113 13.614 24.6098 13.2585 25.0604 13.0864C25.2302 13.0195 25.4108 12.9842 25.5933 12.9823C25.7878 12.9801 25.9794 13.0296 26.1486 13.1256C26.8216 13.514 26.9466 14.6107 26.4214 15.5203ZM19.6853 13.2766C19.8653 13.3159 20.049 13.3357 20.2332 13.3357C20.8482 13.3357 21.4567 13.1141 21.9891 12.6883C22.634 12.1727 23.0933 11.4099 23.2822 10.5406C23.6849 8.68831 22.7264 6.90181 21.1457 6.55822C20.3508 6.38544 19.5326 6.59431 18.8419 7.14655C18.1969 7.66217 17.7376 8.42492 17.5487 9.29422C17.1461 11.1465 18.1045 12.933 19.6853 13.2766ZM19.0145 9.61288C19.1305 9.07911 19.4018 8.61913 19.7786 8.31814C20.0398 8.10936 20.3265 8.00028 20.6053 8.00028C20.6799 8.00015 20.7542 8.008 20.8271 8.02372C21.5865 8.18881 22.0396 9.1956 21.8165 10.2217C21.7004 10.7555 21.4291 11.2154 21.0525 11.5165C20.7215 11.7811 20.3493 11.8856 20.004 11.8106C19.2445 11.6458 18.7914 10.6391 19.0145 9.61288Z" fill="white" fill-opacity="0.7"/>
</svg>
