<svg width="70" height="70" viewBox="0 0 70 70" fill="none" xmlns="http://www.w3.org/2000/svg">
<circle cx="35" cy="35" r="35" fill="#002951"/>
<path d="M47.9669 44.5338C45.2332 45.1902 42.3793 45.1584 39.6609 44.4412C36.9426 43.7241 34.4445 42.344 32.3904 40.4244C30.3363 38.5049 28.7903 36.106 27.8908 33.4424C26.9914 30.7788 26.7666 27.9337 27.2366 25.1619C27.1651 25.2309 27.0897 25.2957 27.0106 25.3559C26.4506 25.7819 25.7506 25.9399 24.3506 26.2559L23.0806 26.5439C18.1605 27.6579 15.7005 28.2139 15.1145 30.0958C14.5305 31.9758 16.2065 33.9378 19.5605 37.8598L20.4285 38.8738C21.3805 39.9878 21.8585 40.5458 22.0726 41.2338C22.2866 41.9238 22.2146 42.6678 22.0706 44.1538L21.9385 45.5078C21.4325 50.7418 21.1785 53.3578 22.7106 54.5198C24.2426 55.6838 26.5466 54.6238 31.1507 52.5018L32.3447 51.9538C33.6527 51.3498 34.3067 51.0498 35.0007 51.0498C35.6947 51.0498 36.3487 51.3498 37.6587 51.9538L38.8487 52.5018C43.4548 54.6218 45.7588 55.6818 47.2888 54.5218C48.8229 53.3578 48.5689 50.7418 48.0629 45.5078L47.9669 44.5338Z" fill="#EFD26A"/>
<path d="M29.3066 21.816L28.6506 22.992C27.9306 24.284 27.5706 24.93 27.0106 25.356C27.0906 25.296 27.1646 25.232 27.2366 25.162C26.7665 27.934 26.9913 30.7793 27.8908 33.4431C28.7903 36.1069 30.3365 38.506 32.3909 40.4256C34.4452 42.3452 36.9436 43.7253 39.6623 44.4422C42.381 45.1592 45.235 45.1907 47.9689 44.5339L47.9289 44.1539C47.7869 42.6679 47.7149 41.9239 47.9289 41.2339C48.1429 40.5459 48.6189 39.9879 49.5729 38.8739L50.4409 37.8599C53.7949 33.9399 55.4709 31.9779 54.8849 30.096C54.3009 28.214 51.8409 27.656 46.9208 26.544L45.6488 26.256C44.2508 25.94 43.5508 25.782 42.9888 25.356C42.4288 24.93 42.0688 24.284 41.3488 22.992L40.6948 21.816C38.1608 17.272 36.8947 15 35.0007 15C33.1067 15 31.8407 17.272 29.3066 21.816Z" fill="#618BBF"/>
</svg>
