<svg width="183" height="183" viewBox="0 0 183 183" fill="none" xmlns="http://www.w3.org/2000/svg">
<circle cx="91.5" cy="91.5" r="91.5" fill="#C4DEF8"/>
<path d="M125.4 116.425C118.253 118.141 110.792 118.058 103.686 116.183C96.579 114.308 90.0482 110.7 84.6782 105.682C79.3082 100.664 75.2666 94.392 72.9152 87.4286C70.5638 80.4652 69.9762 73.0273 71.2048 65.781C71.018 65.9615 70.8207 66.1308 70.614 66.2882C69.15 67.4019 67.32 67.8149 63.6599 68.641L60.3397 69.3939C47.4773 72.3062 41.0461 73.7598 39.5141 78.6799C37.9873 83.5947 42.3689 88.7239 51.1374 98.9771L53.4066 101.628C55.8954 104.54 57.145 105.999 57.7045 107.798C58.264 109.602 58.0757 111.547 57.6993 115.431L57.3542 118.971C56.0314 132.654 55.3673 139.493 59.3724 142.531C63.3776 145.574 69.401 142.803 81.4373 137.255L84.5588 135.823C87.9783 134.244 89.688 133.459 91.5024 133.459C93.3167 133.459 95.0265 134.244 98.4512 135.823L101.562 137.255C113.604 142.798 119.627 145.569 123.627 142.536C127.637 139.493 126.973 132.654 125.651 118.971L125.4 116.425Z" fill="#EFD26A"/>
<path d="M76.6164 57.0338L74.9014 60.1081C73.0191 63.4858 72.0779 65.1746 70.6139 66.2883C70.823 66.1314 71.0165 65.9641 71.2047 65.7811C69.9758 73.0279 70.5634 80.4664 72.915 87.4304C75.2666 94.3944 79.3088 100.666 84.6794 105.685C90.0501 110.703 96.5816 114.311 103.689 116.185C110.796 118.06 118.258 118.142 125.405 116.425L125.3 115.431C124.929 111.547 124.741 109.602 125.3 107.798C125.86 105.999 127.104 104.54 129.598 101.628L131.867 98.9772C140.636 88.7293 145.017 83.6 143.485 78.68C141.959 73.7599 135.527 72.3011 122.665 69.3941L119.34 68.6411C115.685 67.815 113.855 67.402 112.385 66.2883C110.921 65.1746 109.98 63.4858 108.098 60.1081L106.388 57.0338C99.7635 45.1545 96.4538 39.2148 91.5023 39.2148C86.5508 39.2148 83.241 45.1545 76.6164 57.0338Z" fill="#618BBF"/>
</svg>
