<svg width="77" height="77" viewBox="0 0 77 77" fill="none" xmlns="http://www.w3.org/2000/svg">
<g id="Frame 45">
<circle id="Ellipse 3" cx="38.5" cy="38.5" r="38.5" fill="#37506E"/>
<path id="Union" fill-rule="evenodd" clip-rule="evenodd" d="M34.0998 56.3574C34.0998 58.7875 36.0697 60.7574 38.4998 60.7574C40.9299 60.7574 42.8998 58.7875 42.8998 56.3574V43.0174H55.8745C58.3045 43.0174 60.2745 41.0474 60.2745 38.6174C60.2745 36.1873 58.3045 34.2174 55.8745 34.2174H42.8998V21.1764C42.8998 18.7463 40.9299 16.7764 38.4998 16.7764C36.0697 16.7764 34.0998 18.7463 34.0998 21.1764V34.2174H20.6935C18.2634 34.2174 16.2935 36.1873 16.2935 38.6174C16.2935 41.0474 18.2634 43.0174 20.6935 43.0174H34.0998V56.3574Z" fill="white" fill-opacity="0.7"/>
</g>
</svg>
