<svg width="38" height="39" viewBox="0 0 38 39" fill="none" xmlns="http://www.w3.org/2000/svg">
<circle cx="18.7979" cy="19.462" r="18.7159" fill="#87A8CF"/>
<path d="M22.5011 12.8567C22.5011 12.8567 22.6164 14.8319 24.359 16.5734C26.1016 18.316 28.0757 18.4323 28.0757 18.4323L29.0052 17.5029C29.7446 16.7635 30.1599 15.7607 30.1599 14.7151C30.1599 13.6694 29.7446 12.6666 29.0052 11.9272C28.2658 11.1878 27.263 10.7725 26.2174 10.7725C25.1717 10.7725 24.1689 11.1878 23.4295 11.9272L22.5001 12.8567L20.1338 15.2229M28.0757 18.4313L22.8019 23.7072L19.6927 26.8144L19.5323 26.9758C18.9527 27.5543 18.663 27.8441 18.3441 28.0928C17.9679 28.3864 17.5607 28.6382 17.1299 28.8437C16.765 29.0172 16.377 29.1465 15.5999 29.4052L12.3103 30.5021M12.3103 30.5021L11.5061 30.7708C11.3187 30.8336 11.1175 30.843 10.925 30.7977C10.7326 30.7525 10.5565 30.6544 10.4168 30.5147C10.277 30.3749 10.1789 30.1988 10.1337 30.0064C10.0884 29.814 10.0978 29.6127 10.1606 29.4253L10.4293 28.6211M12.3103 30.5021L10.4293 28.6211M10.4293 28.6211L11.5262 25.3315C11.7849 24.5544 11.9142 24.1664 12.0877 23.8015C12.2932 23.3703 12.5449 22.9633 12.8387 22.5873C13.0873 22.2684 13.3771 21.9787 13.9556 21.4001L16.6246 18.7321" stroke="white" stroke-width="1.67106" stroke-linecap="round"/>
</svg>
