<svg width="34" height="34" viewBox="0 0 34 34" fill="none" xmlns="http://www.w3.org/2000/svg">
<circle cx="17" cy="17" r="17" fill="#87A8CF"/>
<path d="M22.6875 17C23.334 17 23.954 17.2568 24.4111 17.7139C24.8682 18.171 25.125 18.791 25.125 19.4375V20.25C25.125 23.4529 22.1025 26.75 17 26.75C11.8975 26.75 8.875 23.4529 8.875 20.25V19.4375C8.875 18.791 9.13181 18.171 9.58893 17.7139C10.046 17.2568 10.666 17 11.3125 17H22.6875ZM22.6875 18.625H11.3125C11.097 18.625 10.8903 18.7106 10.738 18.863C10.5856 19.0153 10.5 19.222 10.5 19.4375V20.25C10.5 22.5868 12.827 25.125 17 25.125C21.173 25.125 23.5 22.5868 23.5 20.25V19.4375C23.5 19.222 23.4144 19.0153 23.262 18.863C23.1097 18.7106 22.903 18.625 22.6875 18.625ZM17 6.4375C18.1852 6.4375 19.3218 6.90831 20.1599 7.74637C20.9979 8.58442 21.4688 9.72106 21.4688 10.9062C21.4688 12.0914 20.9979 13.2281 20.1599 14.0661C19.3218 14.9042 18.1852 15.375 17 15.375C15.8148 15.375 14.6782 14.9042 13.8401 14.0661C13.0021 13.2281 12.5312 12.0914 12.5312 10.9062C12.5312 9.72106 13.0021 8.58442 13.8401 7.74637C14.6782 6.90831 15.8148 6.4375 17 6.4375ZM17 8.0625C16.2458 8.0625 15.5225 8.36211 14.9892 8.89542C14.4559 9.42872 14.1562 10.152 14.1562 10.9062C14.1562 11.6605 14.4559 12.3838 14.9892 12.9171C15.5225 13.4504 16.2458 13.75 17 13.75C17.7542 13.75 18.4775 13.4504 19.0108 12.9171C19.5441 12.3838 19.8438 11.6605 19.8438 10.9062C19.8438 10.152 19.5441 9.42872 19.0108 8.89542C18.4775 8.36211 17.7542 8.0625 17 8.0625Z" fill="white" fill-opacity="0.7"/>
</svg>
