<svg width="34" height="34" viewBox="0 0 34 34" fill="none" xmlns="http://www.w3.org/2000/svg">
<circle cx="17" cy="17" r="17" fill="#87A8CF"/>
<path fill-rule="evenodd" clip-rule="evenodd" d="M15.5 24.8849C15.5 25.7134 16.1716 26.3849 17 26.3849C17.8284 26.3849 18.5 25.7134 18.5 24.8849V18.5517H24.6719C25.5003 18.5517 26.1719 17.8801 26.1719 17.0517C26.1719 16.2232 25.5003 15.5517 24.6719 15.5517H18.5V9.35046C18.5 8.52203 17.8284 7.85046 17 7.85046C16.1716 7.85046 15.5 8.52203 15.5 9.35046V15.5517H9.13741C8.30899 15.5517 7.63741 16.2232 7.63741 17.0517C7.63741 17.8801 8.30899 18.5517 9.13741 18.5517H15.5V24.8849Z" fill="white" fill-opacity="0.7"/>
</svg>
